<svg width="144" height="302" viewBox="0 0 144 302" fill="none" xmlns="http://www.w3.org/2000/svg">
<path fill-rule="evenodd" clip-rule="evenodd" d="M51.0037 162.61C71.182 167.207 94.4573 158.8 105.129 141.198C109.92 133.295 113.075 125.54 114.674 117.926C136.031 130.269 144.203 147.594 141.506 169.288C139.278 187.21 130.051 206.814 114.924 229.648C100.957 250.732 74.9081 276.419 60.1686 283.373C55.7639 285.451 50.6805 287.25 44.9037 288.851C36.9854 291.046 14.0075 295.507 15.5804 295.141C12.7156 295.807 10.4966 296.539 5.5656 298.332C3.12836 299.218 2.04488 299.602 0.686523 300.05L1.31312 301.95C2.6968 301.493 3.79282 301.104 6.24887 300.211C11.1045 298.446 13.2727 297.731 16.0332 297.089C14.3913 297.471 37.4284 292.998 45.4379 290.778C51.3165 289.149 56.5036 287.313 61.0219 285.182C76.1406 278.049 102.44 252.115 116.592 230.752C131.875 207.682 141.215 187.837 143.49 169.535C146.311 146.847 137.58 128.621 115.073 115.85C117.719 100.596 114.108 85.9079 104.892 71.7233C93.4525 54.1159 74.0994 38.0458 47.3014 21.857C35.9335 14.9896 27.8237 10.5952 7.77207 0.11377L6.84556 1.88622C26.86 12.3483 34.9468 16.7302 46.2673 23.5689C72.8292 39.615 91.9754 55.5134 103.215 72.8129C112.017 86.3598 115.552 100.314 113.216 114.825C112.863 114.636 112.506 114.447 112.146 114.26C104.206 110.133 85.4911 105.49 69.5742 104.236C48.7157 102.594 34.043 106.326 29.706 116.761C19.8928 140.373 29.6478 157.746 51.0037 162.61ZM69.4171 106.23C85.0858 107.464 103.547 112.044 111.224 116.035C111.771 116.32 112.311 116.607 112.844 116.898C111.334 124.492 108.221 132.24 103.418 140.162C93.218 156.987 70.8254 165.074 51.4479 160.66C31.2692 156.064 22.2287 139.964 31.5529 117.529C35.4333 108.192 49.3566 104.65 69.4171 106.23Z" fill="black"/>
</svg>
