<svg width="194" height="194" viewBox="0 0 194 194" fill="none" xmlns="http://www.w3.org/2000/svg">
<mask id="mask0_54_2455" style="mask-type:luminance" maskUnits="userSpaceOnUse" x="0" y="0" width="194" height="194">
<circle cx="97" cy="97" r="97" fill="white"/>
</mask>
<g mask="url(#mask0_54_2455)">
<path d="M48.5091 -101.367L49.2167 -102.073L48.51 -102.781L47.8024 -102.074L48.5091 -101.367ZM49.2157 -100.659L49.9233 -101.366L49.2157 -100.659ZM47.0939 -99.9534L46.3873 -100.661L45.6797 -99.9544L46.3863 -99.2468L47.0939 -99.9534ZM47.8005 -99.2458L48.5081 -99.9525L48.5081 -99.9525L47.8005 -99.2458ZM301.924 155.221L302.632 154.514L301.924 155.221ZM302.631 155.928L301.923 156.635L302.63 157.342L303.337 156.636L302.631 155.928ZM304.046 154.515L304.753 155.223L305.46 154.516L304.753 153.808L304.046 154.515ZM303.339 153.807L302.632 154.514L303.339 153.807ZM40.2782 -93.1354L40.9857 -93.842L40.2791 -94.5496L39.5715 -93.843L40.2782 -93.1354ZM40.9848 -92.4278L41.6924 -93.1344L40.9848 -92.4278ZM38.863 -91.7221L38.1564 -92.4297L37.4488 -91.7231L38.1554 -91.0155L38.863 -91.7221ZM39.5696 -91.0145L40.2772 -91.7212L40.2772 -91.7212L39.5696 -91.0145ZM293.693 163.452L292.986 164.159L293.693 163.452ZM294.4 164.16L293.692 164.866L294.399 165.574L295.106 164.867L294.4 164.16ZM295.815 162.746L296.522 163.454L297.229 162.747L296.523 162.04L295.815 162.746ZM295.108 162.039L294.401 162.745L295.108 162.039ZM32.7543 -84.1972L33.4619 -84.9038L33.4619 -84.9038L32.7543 -84.1972ZM32.0476 -84.9047L32.7552 -85.6114L32.0486 -86.319L31.341 -85.6123L32.0476 -84.9047ZM286.878 170.269L286.17 170.976L286.878 170.269ZM287.584 170.977L288.291 171.685L288.999 170.978L288.292 170.27L287.584 170.977ZM286.169 172.39L285.462 173.097L286.168 173.804L286.876 173.098L286.169 172.39ZM285.463 171.683L284.755 172.389L285.463 171.683ZM31.3391 -82.7839L30.6315 -82.0773L30.6315 -82.0773L31.3391 -82.7839ZM30.6325 -83.4915L29.9258 -84.1991L29.2183 -83.4924L29.9249 -82.7849L30.6325 -83.4915ZM23.8167 -76.6744L24.5243 -77.3811L23.8177 -78.0887L23.1101 -77.382L23.8167 -76.6744ZM24.5234 -75.9669L23.8158 -75.2602L23.8158 -75.2602L24.5234 -75.9669ZM22.4016 -75.2612L21.6949 -75.9688L20.9873 -75.2621L21.694 -74.5545L22.4016 -75.2612ZM23.1082 -74.5536L22.4006 -73.847L22.4006 -73.847L23.1082 -74.5536ZM277.232 179.913L277.939 179.206L277.232 179.913ZM277.938 180.621L277.231 181.327L277.937 182.035L278.645 181.328L277.938 180.621ZM279.354 179.207L280.06 179.915L280.768 179.208L280.061 178.501L279.354 179.207ZM278.647 178.5L279.355 177.793L278.647 178.5ZM16.2928 -67.7362L15.5853 -67.0296L15.5853 -67.0296L16.2928 -67.7362ZM15.5862 -68.4438L16.2938 -69.1504L15.5872 -69.858L14.8796 -69.1514L15.5862 -68.4438ZM270.416 186.73L271.124 186.024L270.416 186.73ZM271.123 187.438L271.83 188.145L272.537 187.439L271.831 186.731L271.123 187.438ZM269.708 188.851L269 189.558L269.707 190.265L270.414 189.559L269.708 188.851ZM269.001 188.144L269.709 187.437L269.001 188.144ZM14.8777 -66.323L14.1701 -65.6163L14.1701 -65.6163L14.8777 -66.323ZM14.171 -67.0306L13.4644 -67.7381L12.7568 -67.0315L13.4635 -66.3239L14.171 -67.0306ZM7.3553 -60.2125L8.06289 -60.9192L7.35626 -61.6267L6.64867 -60.9201L7.3553 -60.2125ZM8.06193 -59.5049L7.35435 -58.7983L7.35435 -58.7983L8.06193 -59.5049ZM5.94014 -58.7993L5.23351 -59.5069L4.52592 -58.8002L5.23255 -58.0926L5.94014 -58.7993ZM6.64676 -58.0917L5.93918 -57.3851L5.93918 -57.3851L6.64676 -58.0917ZM260.77 196.375L261.478 195.668L260.77 196.375ZM261.477 197.082L260.769 197.789L261.476 198.497L262.184 197.79L261.477 197.082ZM262.892 195.669L263.599 196.377L264.306 195.67L263.6 194.963L262.892 195.669ZM262.185 194.962L262.893 194.255L262.185 194.962ZM-0.168584 -51.2743L-0.876171 -50.5677L-0.876167 -50.5677L-0.168584 -51.2743ZM-0.87521 -51.9819L-0.167624 -52.6885L-0.874253 -53.3961L-1.58184 -52.6895L-0.87521 -51.9819ZM253.955 203.192L254.663 202.486L254.663 202.486L253.955 203.192ZM254.662 203.9L255.368 204.607L256.076 203.901L255.369 203.193L254.662 203.9ZM253.246 205.313L252.539 206.02L253.245 206.727L253.953 206.021L253.246 205.313ZM252.54 204.605L253.247 203.899L253.247 203.899L252.54 204.605ZM-1.58375 -49.8611L-0.876162 -50.5677L-0.876164 -50.5677L-1.58375 -49.8611ZM-2.29038 -50.5686L-2.997 -51.2762L-3.70459 -50.5696L-2.99796 -49.862L-2.29038 -50.5686ZM-9.10612 -43.7516L-8.39853 -44.4582L-9.10516 -45.1658L-9.81275 -44.4592L-9.10612 -43.7516ZM-8.3995 -43.044L-9.10708 -42.3374L-9.10708 -42.3374L-8.3995 -43.044ZM-10.5213 -42.3383L-11.2279 -43.0459L-11.9355 -42.3393L-11.2289 -41.6317L-10.5213 -42.3383ZM-9.81466 -41.6307L-9.10707 -42.3374L-9.10708 -42.3374L-9.81466 -41.6307ZM244.309 212.836L245.017 212.129L245.016 212.129L244.309 212.836ZM245.016 213.543L244.308 214.25L245.015 214.958L245.722 214.251L245.016 213.543ZM246.431 212.13L247.137 212.838L247.845 212.131L247.138 211.423L246.431 212.13ZM245.724 211.423L246.432 210.716L246.432 210.716L245.724 211.423ZM-16.63 -34.8134L-17.3376 -34.1067L-17.3376 -34.1067L-16.63 -34.8134ZM-17.3366 -35.521L-16.629 -36.2276L-17.3357 -36.9352L-18.0433 -36.2285L-17.3366 -35.521ZM237.494 219.653L238.201 218.947L238.201 218.946L237.494 219.653ZM238.2 220.361L238.907 221.068L239.614 220.362L238.908 219.654L238.2 220.361ZM236.785 221.774L236.077 222.481L236.784 223.188L237.492 222.482L236.785 221.774ZM236.078 221.066L236.786 220.36L236.786 220.36L236.078 221.066ZM-18.0452 -33.4001L-17.3376 -34.1067L-17.3376 -34.1068L-18.0452 -33.4001ZM-18.7518 -34.1077L-19.4584 -34.8153L-20.166 -34.1087L-19.4594 -33.4011L-18.7518 -34.1077ZM-25.5675 -27.2897L-24.86 -27.9963L-25.5666 -28.7039L-26.2742 -27.9973L-25.5675 -27.2897ZM-24.8609 -26.5821L-25.5685 -25.8755L-25.5685 -25.8755L-24.8609 -26.5821ZM-26.9827 -25.8764L-27.6893 -26.584L-28.3969 -25.8774L-27.6903 -25.1698L-26.9827 -25.8764ZM-26.2761 -25.1688L-25.5685 -25.8755L-25.5685 -25.8755L-26.2761 -25.1688ZM227.847 229.298L228.555 228.591L228.555 228.591L227.847 229.298ZM228.554 230.005L227.847 230.712L228.553 231.419L229.261 230.713L228.554 230.005ZM229.969 228.592L230.676 229.3L231.383 228.593L230.677 227.885L229.969 228.592ZM229.263 227.884L229.97 227.178L229.97 227.178L229.263 227.884ZM-33.0914 -18.3515L-33.799 -17.6448L-33.799 -17.6448L-33.0914 -18.3515ZM-33.7981 -19.059L-33.0905 -19.7657L-33.7971 -20.4733L-34.5047 -19.7666L-33.7981 -19.059ZM221.032 236.115L221.74 235.408L221.74 235.408L221.032 236.115ZM221.739 236.823L222.445 237.53L223.153 236.824L222.446 236.116L221.739 236.823ZM220.324 238.236L219.616 238.943L220.323 239.65L221.03 238.943L220.324 238.236ZM219.617 237.528L220.325 236.822L220.325 236.822L219.617 237.528ZM-34.5066 -16.9382L-33.799 -17.6448L-33.799 -17.6448L-34.5066 -16.9382ZM-35.2132 -17.6458L-35.9199 -18.3534L-36.6274 -17.6467L-35.9208 -16.9392L-35.2132 -17.6458ZM-42.029 -10.8287L-41.3214 -11.5354L-42.028 -12.243L-42.7356 -11.5363L-42.029 -10.8287ZM-41.3223 -10.1212L-40.6148 -10.8278L-40.6148 -10.8278L-41.3223 -10.1212ZM-43.4441 -9.41548L-44.1508 -10.1231L-44.8584 -9.41644L-44.1517 -8.70885L-43.4441 -9.41548ZM-42.7375 -8.7079L-42.0299 -9.41453L-42.0299 -9.41453L-42.7375 -8.7079ZM211.386 245.759L210.678 246.465L211.386 245.759ZM212.093 246.466L211.385 247.173L212.092 247.88L212.799 247.174L212.093 246.466ZM213.508 245.053L214.214 245.761L214.922 245.054L214.215 244.346L213.508 245.053ZM212.801 244.345L212.094 245.052L212.801 244.345ZM-49.5529 -1.88955L-48.8453 -2.59618L-48.8453 -2.59618L-49.5529 -1.88955ZM-50.2595 -2.59713L-49.5519 -3.30376L-50.2585 -4.01134L-50.9661 -3.30471L-50.2595 -2.59713ZM204.571 252.577L203.863 253.284L204.571 252.577ZM205.277 253.285L205.984 253.992L206.692 253.285L205.985 252.578L205.277 253.285ZM203.862 254.698L203.155 255.404L203.861 256.112L204.569 255.405L203.862 254.698ZM203.156 253.99L202.448 254.697L203.156 253.99ZM-50.968 -0.476288L-50.2604 -1.18292L-50.2604 -1.18292L-50.968 -0.476288ZM-51.6747 -1.18387L-52.3813 -1.89145L-53.0889 -1.18482L-52.3822 -0.477238L-51.6747 -1.18387ZM-58.4904 5.63317L-57.7828 4.92654L-58.4894 4.21896L-59.197 4.92559L-58.4904 5.63317ZM-57.7838 6.34075L-57.0762 5.63412L-57.0762 5.63412L-57.7838 6.34075ZM-59.9056 7.04643L-60.6122 6.33885L-61.3198 7.04548L-60.6131 7.75306L-59.9056 7.04643ZM-59.1989 7.75401L-58.4913 7.04738L-58.4913 7.04738L-59.1989 7.75401ZM194.925 262.221L194.217 262.927L194.925 262.221ZM195.631 262.928L194.924 263.635L195.63 264.342L196.338 263.636L195.631 262.928ZM197.046 261.515L197.753 262.222L198.461 261.516L197.754 260.808L197.046 261.515ZM196.34 260.807L195.632 261.514L196.34 260.807ZM-66.0143 14.5714L-65.3067 13.8648L-65.3067 13.8648L-66.0143 14.5714ZM-66.7209 13.8638L-66.0133 13.1572L-66.72 12.4496L-67.4275 13.1562L-66.7209 13.8638ZM188.109 269.038L187.402 269.745L188.109 269.038ZM188.816 269.745L189.523 270.453L190.23 269.746L189.523 269.039L188.816 269.745ZM187.401 271.159L186.693 271.865L187.4 272.573L188.107 271.866L187.401 271.159ZM186.694 270.451L185.987 271.158L186.694 270.451ZM-67.4294 15.9846L-66.7219 15.278L-66.7219 15.278L-67.4294 15.9846ZM-68.1361 15.2771L-68.8427 14.5695L-69.5503 15.2761L-68.8437 15.9837L-68.1361 15.2771ZM-74.9518 22.0941L-74.2442 21.3875L-74.9509 20.6799L-75.6585 21.3865L-74.9518 22.0941ZM-74.2452 22.8017L-73.5376 22.0951L-73.5376 22.0951L-74.2452 22.8017ZM-76.367 23.5074L-77.0736 22.7998L-77.7812 23.5064L-77.0746 24.214L-76.367 23.5074ZM-75.6604 24.215L-74.9528 23.5083L-74.9528 23.5083L-75.6604 24.215ZM178.463 278.681L177.756 279.388L178.463 278.681ZM179.17 279.389L178.462 280.096L179.169 280.803L179.876 280.097L179.17 279.389ZM180.585 277.976L181.292 278.683L181.999 277.977L181.293 277.269L180.585 277.976ZM179.878 277.268L179.171 277.975L179.878 277.268ZM-82.4761 31.0331L-81.7686 30.3265L-81.7686 30.3265L-82.4761 31.0331ZM-83.1828 30.3256L-82.4752 29.6189L-83.1818 28.9113L-83.8894 29.618L-83.1828 30.3256ZM171.647 285.5L170.94 286.206L171.647 285.5ZM172.354 286.207L173.061 286.915L173.768 286.208L173.062 285.501L172.354 286.207ZM170.939 287.62L170.231 288.327L170.938 289.035L171.646 288.328L170.939 287.62ZM170.232 286.913L169.525 287.62L170.232 286.913ZM-83.8913 32.4464L-83.1837 31.7398L-83.1837 31.7398L-83.8913 32.4464ZM-84.5979 31.7388L-85.3046 31.0312L-86.0122 31.7379L-85.3055 32.4454L-84.5979 31.7388ZM-91.4133 38.556L-90.7057 37.8494L-91.4123 37.1418L-92.1199 37.8484L-91.4133 38.556ZM-90.7066 39.2636L-89.999 38.557L-89.999 38.557L-90.7066 39.2636ZM-92.8284 39.9693L-93.5351 39.2617L-94.2426 39.9683L-93.536 40.6759L-92.8284 39.9693ZM-92.1218 40.6769L-91.4142 39.9702L-91.4142 39.9702L-92.1218 40.6769ZM162.002 295.143L161.294 295.85L162.002 295.143ZM162.708 295.851L162.001 296.558L162.707 297.265L163.415 296.559L162.708 295.851ZM164.124 294.438L164.83 295.145L165.538 294.439L164.831 293.731L164.124 294.438ZM163.417 293.73L162.709 294.437L163.417 293.73ZM47.8015 -100.66L48.5081 -99.9525L49.9233 -101.366L49.2167 -102.073L47.8015 -100.66ZM47.8005 -99.2458L49.2157 -100.659L47.8024 -102.074L46.3873 -100.661L47.8005 -99.2458ZM48.5081 -99.9525L47.8015 -100.66L46.3863 -99.2468L47.0929 -98.5392L48.5081 -99.9525ZM302.632 154.514L48.5081 -99.9525L47.0929 -98.5392L301.217 155.927L302.632 154.514ZM303.338 155.222L302.632 154.514L301.217 155.927L301.923 156.635L303.338 155.222ZM303.339 153.807L301.924 155.221L303.337 156.636L304.753 155.223L303.339 153.807ZM302.632 154.514L303.338 155.222L304.753 153.808L304.047 153.101L302.632 154.514ZM48.5081 -99.9525L302.632 154.514L304.047 153.101L49.9233 -101.366L48.5081 -99.9525ZM39.5706 -92.4287L40.2772 -91.7212L41.6924 -93.1344L40.9857 -93.842L39.5706 -92.4287ZM39.5696 -91.0145L40.9848 -92.4278L39.5715 -93.843L38.1564 -92.4297L39.5696 -91.0145ZM40.2772 -91.7212L39.5706 -92.4287L38.1554 -91.0155L38.862 -90.3079L40.2772 -91.7212ZM294.401 162.745L40.2772 -91.7212L38.862 -90.3079L292.986 164.159L294.401 162.745ZM295.107 163.453L294.401 162.745L292.986 164.159L293.692 164.866L295.107 163.453ZM295.108 162.039L293.693 163.452L295.106 164.867L296.522 163.454L295.108 162.039ZM294.401 162.745L295.107 163.453L296.523 162.04L295.816 161.332L294.401 162.745ZM40.2772 -91.7212L294.401 162.745L295.816 161.332L41.6924 -93.1344L40.2772 -91.7212ZM33.4619 -84.9038L32.7552 -85.6114L31.3401 -84.1981L32.0467 -83.4905L33.4619 -84.9038ZM287.585 169.563L33.4619 -84.9038L32.0467 -83.4905L286.17 170.976L287.585 169.563ZM288.292 170.27L287.585 169.563L286.17 170.976L286.877 171.684L288.292 170.27ZM286.876 173.098L288.291 171.685L286.878 170.269L285.463 171.683L286.876 173.098ZM284.755 172.389L285.462 173.097L286.877 171.684L286.17 170.976L284.755 172.389ZM30.6315 -82.0773L284.755 172.389L286.17 170.976L32.0467 -83.4905L30.6315 -82.0773ZM29.9249 -82.7849L30.6315 -82.0773L32.0467 -83.4905L31.3401 -84.1981L29.9249 -82.7849ZM31.341 -85.6123L29.9258 -84.1991L31.3391 -82.7839L32.7543 -84.1972L31.341 -85.6123ZM23.1091 -75.9678L23.8158 -75.2602L25.2309 -76.6735L24.5243 -77.3811L23.1091 -75.9678ZM23.1082 -74.5536L24.5234 -75.9669L23.1101 -77.382L21.6949 -75.9688L23.1082 -74.5536ZM23.8158 -75.2602L23.1091 -75.9678L21.694 -74.5545L22.4006 -73.847L23.8158 -75.2602ZM277.939 179.206L23.8158 -75.2602L22.4006 -73.847L276.524 180.62L277.939 179.206ZM278.646 179.914L277.939 179.206L276.524 180.62L277.231 181.327L278.646 179.914ZM278.647 178.5L277.232 179.913L278.645 181.328L280.06 179.915L278.647 178.5ZM277.939 179.206L278.646 179.914L280.061 178.501L279.355 177.793L277.939 179.206ZM23.8158 -75.2602L277.939 179.206L279.355 177.793L25.2309 -76.6735L23.8158 -75.2602ZM17.0004 -68.4429L16.2938 -69.1504L14.8786 -67.7372L15.5853 -67.0296L17.0004 -68.4429ZM271.124 186.024L17.0004 -68.4429L15.5853 -67.0296L269.709 187.437L271.124 186.024ZM271.831 186.731L271.124 186.024L269.709 187.437L270.415 188.144L271.831 186.731ZM270.414 189.559L271.83 188.145L270.416 186.73L269.001 188.144L270.414 189.559ZM268.294 188.85L269 189.558L270.415 188.144L269.709 187.437L268.294 188.85ZM14.1701 -65.6163L268.294 188.85L269.709 187.437L15.5853 -67.0296L14.1701 -65.6163ZM13.4635 -66.3239L14.1701 -65.6163L15.5853 -67.0296L14.8786 -67.7372L13.4635 -66.3239ZM14.8796 -69.1514L13.4644 -67.7381L14.8777 -66.323L16.2928 -67.7362L14.8796 -69.1514ZM6.64772 -59.5059L7.35435 -58.7983L8.76952 -60.2116L8.06289 -60.9192L6.64772 -59.5059ZM6.64677 -58.0917L8.06193 -59.5049L6.64867 -60.9201L5.23351 -59.5069L6.64677 -58.0917ZM7.35435 -58.7983L6.64772 -59.5059L5.23255 -58.0926L5.93918 -57.3851L7.35435 -58.7983ZM261.478 195.668L7.35435 -58.7983L5.93918 -57.3851L260.063 197.081L261.478 195.668ZM262.185 196.376L261.478 195.668L260.063 197.081L260.769 197.789L262.185 196.376ZM262.185 194.962L260.77 196.375L262.184 197.79L263.599 196.377L262.185 194.962ZM261.478 195.668L262.185 196.376L263.6 194.963L262.893 194.255L261.478 195.668ZM7.35435 -58.7983L261.478 195.668L262.893 194.255L8.76952 -60.2116L7.35435 -58.7983ZM0.539003 -51.9809L-0.167624 -52.6885L-1.5828 -51.2753L-0.876171 -50.5677L0.539003 -51.9809ZM254.663 202.486L0.539 -51.9809L-0.876167 -50.5677L253.247 203.899L254.663 202.486ZM255.369 203.193L254.663 202.486L253.247 203.899L253.954 204.606L255.369 203.193ZM253.953 206.021L255.368 204.607L253.955 203.192L252.54 204.605L253.953 206.021ZM251.832 205.312L252.539 206.02L253.954 204.606L253.247 203.899L251.832 205.312ZM-2.29133 -49.1544L251.832 205.312L253.247 203.899L-0.876162 -50.5677L-2.29133 -49.1544ZM-2.99796 -49.862L-2.29133 -49.1544L-0.876164 -50.5677L-1.5828 -51.2753L-2.99796 -49.862ZM-1.58184 -52.6895L-2.997 -51.2762L-1.58375 -49.8611L-0.168579 -51.2743L-1.58184 -52.6895ZM-9.81371 -43.045L-9.10708 -42.3374L-7.69191 -43.7506L-8.39853 -44.4582L-9.81371 -43.045ZM-9.81466 -41.6307L-8.39949 -43.044L-9.81275 -44.4592L-11.2279 -43.0459L-9.81466 -41.6307ZM-9.10708 -42.3374L-9.81371 -43.045L-11.2289 -41.6317L-10.5222 -40.9241L-9.10708 -42.3374ZM245.016 212.129L-9.10707 -42.3374L-10.5222 -40.9241L243.601 213.542L245.016 212.129ZM245.723 212.837L245.017 212.129L243.601 213.542L244.308 214.25L245.723 212.837ZM245.724 211.423L244.309 212.836L245.722 214.251L247.137 212.838L245.724 211.423ZM245.016 212.129L245.723 212.837L247.138 211.423L246.432 210.716L245.016 212.129ZM-9.10708 -42.3374L245.016 212.129L246.432 210.716L-7.69191 -43.7506L-9.10708 -42.3374ZM-15.9224 -35.52L-16.629 -36.2276L-18.0442 -34.8143L-17.3376 -34.1067L-15.9224 -35.52ZM238.201 218.946L-15.9224 -35.52L-17.3376 -34.1067L236.786 220.36L238.201 218.946ZM238.908 219.654L238.201 218.947L236.786 220.36L237.493 221.067L238.908 219.654ZM237.492 222.482L238.907 221.068L237.494 219.653L236.078 221.066L237.492 222.482ZM235.371 221.773L236.077 222.481L237.493 221.067L236.786 220.36L235.371 221.773ZM-18.7528 -32.6935L235.371 221.773L236.786 220.36L-17.3376 -34.1067L-18.7528 -32.6935ZM-19.4594 -33.4011L-18.7528 -32.6935L-17.3376 -34.1068L-18.0442 -34.8143L-19.4594 -33.4011ZM-18.0433 -36.2285L-19.4584 -34.8153L-18.0452 -33.4001L-16.63 -34.8134L-18.0433 -36.2285ZM-26.2751 -26.583L-25.5685 -25.8755L-24.1533 -27.2887L-24.86 -27.9963L-26.2751 -26.583ZM-26.2761 -25.1688L-24.8609 -26.5821L-26.2742 -27.9973L-27.6893 -26.584L-26.2761 -25.1688ZM-25.5685 -25.8755L-26.2751 -26.583L-27.6903 -25.1698L-26.9837 -24.4622L-25.5685 -25.8755ZM228.555 228.591L-25.5685 -25.8755L-26.9837 -24.4622L227.14 230.004L228.555 228.591ZM229.262 229.299L228.555 228.591L227.14 230.004L227.847 230.712L229.262 229.299ZM229.263 227.884L227.847 229.298L229.261 230.713L230.676 229.3L229.263 227.884ZM228.555 228.591L229.262 229.299L230.677 227.885L229.97 227.178L228.555 228.591ZM-25.5685 -25.8755L228.555 228.591L229.97 227.178L-24.1533 -27.2887L-25.5685 -25.8755ZM-32.3838 -19.0581L-33.0905 -19.7657L-34.5056 -18.3524L-33.799 -17.6448L-32.3838 -19.0581ZM221.74 235.408L-32.3839 -19.0581L-33.799 -17.6448L220.325 236.822L221.74 235.408ZM222.446 236.116L221.74 235.408L220.325 236.822L221.031 237.529L222.446 236.116ZM221.03 238.943L222.445 237.53L221.032 236.115L219.617 237.528L221.03 238.943ZM218.909 238.235L219.616 238.943L221.031 237.529L220.325 236.822L218.909 238.235ZM-35.2142 -16.2316L218.909 238.235L220.325 236.822L-33.799 -17.6448L-35.2142 -16.2316ZM-35.9208 -16.9392L-35.2142 -16.2316L-33.799 -17.6448L-34.5056 -18.3524L-35.9208 -16.9392ZM-34.5047 -19.7666L-35.9199 -18.3534L-34.5066 -16.9382L-33.0914 -18.3515L-34.5047 -19.7666ZM-42.7365 -10.1221L-42.0299 -9.41453L-40.6148 -10.8278L-41.3214 -11.5354L-42.7365 -10.1221ZM-42.7375 -8.7079L-41.3223 -10.1212L-42.7356 -11.5363L-44.1508 -10.1231L-42.7375 -8.7079ZM-42.0299 -9.41453L-42.7366 -10.1221L-44.1517 -8.70885L-43.4451 -8.00127L-42.0299 -9.41453ZM212.094 245.052L-42.0299 -9.41453L-43.4451 -8.00127L210.678 246.465L212.094 245.052ZM212.8 245.76L212.094 245.052L210.678 246.465L211.385 247.173L212.8 245.76ZM212.801 244.345L211.386 245.759L212.799 247.174L214.214 245.761L212.801 244.345ZM212.094 245.052L212.8 245.76L214.215 244.346L213.509 243.639L212.094 245.052ZM-42.0299 -9.41453L212.094 245.052L213.509 243.639L-40.6148 -10.8278L-42.0299 -9.41453ZM-48.8453 -2.59618L-49.5519 -3.30376L-50.9671 -1.8905L-50.2604 -1.18292L-48.8453 -2.59618ZM205.278 251.87L-48.8453 -2.59618L-50.2604 -1.18292L203.863 253.284L205.278 251.87ZM205.985 252.578L205.278 251.87L203.863 253.284L204.57 253.991L205.985 252.578ZM204.569 255.405L205.984 253.992L204.571 252.577L203.156 253.99L204.569 255.405ZM202.448 254.697L203.155 255.404L204.57 253.991L203.863 253.284L202.448 254.697ZM-51.6756 0.230341L202.448 254.697L203.863 253.284L-50.2604 -1.18292L-51.6756 0.230341ZM-52.3822 -0.477238L-51.6756 0.230344L-50.2604 -1.18292L-50.9671 -1.8905L-52.3822 -0.477238ZM-50.9661 -3.30471L-52.3813 -1.89145L-50.968 -0.476288L-49.5529 -1.88955L-50.9661 -3.30471ZM-59.198 6.3398L-58.4913 7.04739L-57.0762 5.63412L-57.7828 4.92654L-59.198 6.3398ZM-59.1989 7.75401L-57.7838 6.34075L-59.197 4.92559L-60.6122 6.33885L-59.1989 7.75401ZM-58.4913 7.04738L-59.198 6.3398L-60.6131 7.75306L-59.9065 8.46064L-58.4913 7.04738ZM195.632 261.514L-58.4913 7.04738L-59.9065 8.46064L194.217 262.927L195.632 261.514ZM196.339 262.221L195.632 261.514L194.217 262.927L194.924 263.635L196.339 262.221ZM196.34 260.807L194.925 262.221L196.338 263.636L197.753 262.222L196.34 260.807ZM195.632 261.514L196.339 262.221L197.754 260.808L197.047 260.101L195.632 261.514ZM-58.4913 7.04738L195.632 261.514L197.047 260.101L-57.0762 5.63412L-58.4913 7.04738ZM-65.3067 13.8648L-66.0133 13.1572L-67.4285 14.5704L-66.7219 15.278L-65.3067 13.8648ZM188.817 268.331L-65.3067 13.8648L-66.7219 15.278L187.402 269.745L188.817 268.331ZM189.523 269.039L188.817 268.331L187.402 269.745L188.108 270.452L189.523 269.039ZM188.107 271.866L189.523 270.453L188.109 269.038L186.694 270.451L188.107 271.866ZM185.987 271.158L186.693 271.865L188.108 270.452L187.402 269.745L185.987 271.158ZM-68.137 16.6913L185.987 271.158L187.402 269.745L-66.7219 15.278L-68.137 16.6913ZM-68.8437 15.9837L-68.137 16.6913L-66.7219 15.278L-67.4285 14.5704L-68.8437 15.9837ZM-67.4275 13.1562L-68.8427 14.5695L-67.4294 15.9846L-66.0143 14.5714L-67.4275 13.1562ZM-75.6594 22.8007L-74.9528 23.5083L-73.5376 22.0951L-74.2442 21.3875L-75.6594 22.8007ZM-75.6604 24.215L-74.2452 22.8017L-75.6585 21.3865L-77.0736 22.7998L-75.6604 24.215ZM-74.9528 23.5083L-75.6594 22.8007L-77.0746 24.214L-76.3679 24.9216L-74.9528 23.5083ZM179.171 277.975L-74.9528 23.5083L-76.3679 24.9216L177.756 279.388L179.171 277.975ZM179.877 278.682L179.171 277.975L177.756 279.388L178.462 280.096L179.877 278.682ZM179.878 277.268L178.463 278.681L179.876 280.097L181.292 278.683L179.878 277.268ZM179.171 277.975L179.877 278.682L181.293 277.269L180.586 276.562L179.171 277.975ZM-74.9528 23.5083L179.171 277.975L180.586 276.562L-73.5376 22.0951L-74.9528 23.5083ZM-81.7686 30.3265L-82.4752 29.6189L-83.8904 31.0322L-83.1837 31.7398L-81.7686 30.3265ZM172.355 284.793L-81.7686 30.3265L-83.1837 31.7398L170.94 286.206L172.355 284.793ZM173.062 285.501L172.355 284.793L170.94 286.206L171.646 286.914L173.062 285.501ZM171.646 288.328L173.061 286.915L171.647 285.5L170.232 286.913L171.646 288.328ZM169.525 287.62L170.231 288.327L171.646 286.914L170.94 286.206L169.525 287.62ZM-84.5989 33.153L169.525 287.62L170.94 286.206L-83.1837 31.7398L-84.5989 33.153ZM-85.3055 32.4454L-84.5989 33.153L-83.1837 31.7398L-83.8904 31.0322L-85.3055 32.4454ZM-83.8894 29.618L-85.3046 31.0312L-83.8913 32.4464L-82.4761 31.0331L-83.8894 29.618ZM-92.1208 39.2627L-91.4142 39.9702L-89.999 38.557L-90.7057 37.8494L-92.1208 39.2627ZM-92.1218 40.6769L-90.7066 39.2636L-92.1199 37.8484L-93.5351 39.2617L-92.1218 40.6769ZM-91.4142 39.9702L-92.1208 39.2627L-93.536 40.6759L-92.8294 41.3835L-91.4142 39.9702ZM162.709 294.437L-91.4142 39.9702L-92.8294 41.3835L161.294 295.85L162.709 294.437ZM163.416 295.144L162.709 294.437L161.294 295.85L162.001 296.558L163.416 295.144ZM163.417 293.73L162.002 295.143L163.415 296.559L164.83 295.145L163.417 293.73ZM162.709 294.437L163.416 295.144L164.831 293.731L164.125 293.023L162.709 294.437ZM-91.4142 39.9702L162.709 294.437L164.125 293.023L-89.999 38.557L-91.4142 39.9702Z" fill="black"/>
</g>
</svg>
